<svg xmlns="http://www.w3.org/2000/svg">
    <symbol id="login" viewBox="0 0 16 16">
        <g>
            <path d="M7 2H14V14H7V16H16V0H7V2Z" fill="currentColor"/>
            <path d="M7 9H0V7H7V4L11 8L7 12V9Z" fill="currentColor"/>
        </g>
    </symbol>

    <symbol id="logo-mobile" viewBox="0 0 226 30">
        <g>
            <path d="M3.49444 9.66752L0 13.1573L3.49444 16.6471L6.98887 13.1573L3.49444 9.66752Z" fill="white"/>
            <path d="M218.806 9.68188L215.311 13.1703L218.806 16.6588L222.302 13.1703L218.806 9.68188Z" fill="white"/>
            <path d="M28.6245 13.2823H29.9054V8.19911H31.9069V6.93081H28.6245V13.2823Z" fill="#636466"/>
            <path d="M37.7314 14.2111V6.47142C37.7257 5.95499 37.5769 5.4502 37.3013 5.01304C37.0257 4.57588 36.6342 4.22341 36.1702 3.99472C36.3575 4.37035 36.4567 4.78356 36.4604 5.20311V12.9827C36.4661 13.3912 36.379 13.7957 36.2056 14.1658C36.0323 14.5359 35.7773 14.8621 35.4596 15.1199C35.7676 15.4114 36.0146 15.761 36.1864 16.1484C36.3582 16.5358 36.4513 16.9533 36.4604 17.3768V25.9654C36.4501 26.6994 36.154 27.4007 35.6348 27.9207C35.1155 28.4408 34.4138 28.7388 33.6783 28.7517H25.382V29.96H34.9493C35.6848 29.9471 36.3865 29.6491 36.9057 29.1291C37.425 28.6091 37.7211 27.9078 37.7314 27.1738V18.6152C37.7234 18.1915 37.6308 17.7736 37.4589 17.3861C37.2871 16.9985 37.0395 16.6491 36.7306 16.3582C37.0485 16.0984 37.3035 15.7705 37.4768 15.3987C37.6501 15.027 37.7371 14.621 37.7314 14.2111Z" fill="#636466"/>
            <path d="M28.6245 24.1778H29.9054V19.0646H31.9069V17.7863H28.6245V24.1778Z" fill="#636466"/>
            <path d="M48.8198 24.1778H50.0908V8.19911H52.0923V6.93081H48.8198V24.1778Z" fill="#636466"/>
            <path d="M56.3555 3.99472C56.5508 4.36783 56.6538 4.78217 56.6557 5.20311V25.9654C56.6454 26.7011 56.3479 27.4038 55.8265 27.9242C55.3051 28.4445 54.6009 28.7413 53.8636 28.7517H47.0885C46.6639 28.7461 46.2463 28.6436 45.8676 28.4521C46.1035 28.908 46.461 29.2901 46.9007 29.5562C47.3404 29.8223 47.8452 29.9621 48.3594 29.96H55.1446C55.8801 29.9471 56.5818 29.6491 57.1011 29.1291C57.6203 28.6091 57.9164 27.9078 57.9267 27.1738V6.47142C57.9213 5.95368 57.7714 5.44769 57.4939 5.01022C57.2163 4.57275 56.8222 4.2211 56.3555 3.99472Z" fill="#636466"/>
            <path d="M69.0051 13.2823H70.2861V8.19911H72.2876V6.93081H69.0051V13.2823Z" fill="#636466"/>
            <path d="M76.5008 18.795C76.9708 18.5739 77.3675 18.2232 77.6441 17.7843C77.9208 17.3454 78.0658 16.8367 78.062 16.3183V6.47142C78.0573 5.95603 77.9099 5.45198 77.6362 5.01492C77.3625 4.57786 76.973 4.22479 76.5108 3.99472C76.6985 4.37735 76.7977 4.79712 76.8011 5.22308V15.0799C76.8031 15.6005 76.6551 16.1108 76.3748 16.5499C76.0944 16.989 75.6936 17.3384 75.2199 17.5566L77.1113 28.7616H73.6487L73.8588 29.96H78.3823L76.5008 18.795Z" fill="#636466"/>
            <path d="M70.7465 17.7863H69.0051V28.7317H65.7627V30H70.2861V19.0646H70.9566L70.7465 17.7863Z" fill="#636466"/>
            <path d="M88.6 24.1778H89.871V8.19911H91.8725V6.93081H88.6V24.1778Z" fill="#636466"/>
            <path d="M96.1357 3.99472C96.3265 4.36952 96.4292 4.78278 96.436 5.20311V25.9654C96.4256 26.7011 96.1281 27.4038 95.6067 27.9242C95.0853 28.4445 94.3811 28.7413 93.6438 28.7517H86.8687C86.4441 28.7461 86.0265 28.6436 85.6478 28.4521C85.8837 28.908 86.2412 29.2901 86.6809 29.5562C87.1206 29.8223 87.6254 29.9621 88.1397 29.96H94.9148C95.6521 29.9497 96.3563 29.6528 96.8777 29.1325C97.3991 28.6122 97.6966 27.9095 97.7069 27.1738V6.47142C97.7015 5.95368 97.5516 5.44769 97.2741 5.01022C96.9966 4.57275 96.6024 4.2211 96.1357 3.99472Z" fill="#636466"/>
            <path d="M108.785 24.1778H110.066V8.19911H112.068V6.93081H108.785V24.1778Z" fill="#636466"/>
            <path d="M116.331 3.99472C116.518 4.37035 116.618 4.78356 116.621 5.20311V25.9654C116.611 26.6994 116.315 27.4007 115.796 27.9207C115.276 28.4408 114.575 28.7388 113.839 28.7517H105.543V29.96H115.09C115.826 29.9497 116.53 29.6525 117.049 29.1319C117.569 28.6113 117.864 27.9086 117.872 27.1738V6.47142C117.868 5.95708 117.723 5.45374 117.451 5.01678C117.179 4.57982 116.791 4.22617 116.331 3.99472Z" fill="#636466"/>
            <path d="M129.201 3.68514V28.7317H125.958V30H130.482V3.68514H129.201Z" fill="#636466"/>
            <path d="M149.326 3.68514V28.7317H145.703L146.074 30H150.597V3.68514H149.326Z" fill="#636466"/>
            <path d="M141.49 17.2271V28.7317H138.238V30H142.761V21.6511L141.49 17.2271Z" fill="#636466"/>
            <path d="M161.215 19.0646H164.958V17.7863H159.954C159.53 17.7838 159.113 17.6848 158.733 17.4967C158.957 17.9645 159.309 18.3598 159.748 18.6372C160.187 18.9145 160.696 19.0627 161.215 19.0646Z" fill="#636466"/>
            <path d="M162.946 20.7524L161.676 21.052V24.1778H162.946V20.7524Z" fill="#636466"/>
            <path d="M169.221 3.99472C169.409 4.37035 169.508 4.78356 169.511 5.20311V10.546L166.229 11.305V12.8729L170.782 11.8143V6.47142C170.777 5.95499 170.628 5.4502 170.352 5.01304C170.077 4.57588 169.685 4.22341 169.221 3.99472Z" fill="#636466"/>
            <path d="M169.221 14.8502C169.41 15.2254 169.509 15.6389 169.512 16.0586V25.9654C169.501 26.7011 169.204 27.4038 168.682 27.9241C168.161 28.4445 167.457 28.7413 166.719 28.7517H159.944C159.523 28.747 159.108 28.6445 158.733 28.4521C158.967 28.908 159.322 29.2903 159.76 29.5566C160.199 29.8228 160.702 29.9625 161.215 29.96H168C168.736 29.9471 169.438 29.6491 169.957 29.1291C170.476 28.6091 170.772 27.9078 170.782 27.1738V17.3369C170.78 16.8185 170.632 16.3111 170.357 15.8719C170.081 15.4326 169.688 15.0788 169.221 14.8502Z" fill="#636466"/>
            <path d="M161.676 6.93081V13.2823H162.947V8.19911H164.958V6.93081H161.676Z" fill="#636466"/>
            <path d="M182.281 17.7863H181.871V28.7317H178.618V30H183.142V20.5226L182.281 17.7863Z" fill="#636466"/>
            <path d="M191.538 3.68514H189.857L186.054 15.5293L190.267 28.7317H186.594L186.945 29.8502L186.985 30H191.538L187.325 16.8076L191.538 3.68514Z" fill="#636466"/>
            <path d="M202.176 3.68514V28.7317H198.924V30H203.447V3.68514H202.176Z" fill="#636466"/>
            <path d="M224.726 15.5912L221.231 19.0797L222.504 20.3508L226 16.8623L224.726 15.5912Z" fill="#636466"/>
            <path d="M9.42279 15.5711L5.92702 19.0596L7.20078 20.3307L10.6965 16.8422L9.42279 15.5711Z" fill="#636466"/>
            <path d="M34.0286 10.526C34.0342 10.9345 33.9471 11.339 33.7738 11.7091C33.6005 12.0792 33.3454 12.4054 33.0278 12.6631C33.3358 12.9547 33.5828 13.3043 33.7546 13.6917C33.9263 14.0791 34.0195 14.4966 34.0286 14.9201V23.5286C34.0183 24.2627 33.7222 24.9639 33.2029 25.484C32.6837 26.004 31.982 26.302 31.2464 26.3149H21.6892V6.10352e-05H31.2565C31.9927 0.00792858 32.6962 0.304637 33.215 0.826033C33.7337 1.34743 34.026 2.05162 34.0286 2.78634V10.526ZM29.4751 4.534H26.2026V10.8855H29.4851L29.4751 4.534ZM29.4751 15.3895H26.2026V21.781H29.4851L29.4751 15.3895Z" fill="white"/>
            <path d="M51.4418 7.90633e-05C52.1815 0.00271066 52.8901 0.297109 53.4132 0.819068C53.9362 1.34103 54.2313 2.0482 54.2339 2.78636V23.5286C54.2236 24.2644 53.9261 24.9671 53.4047 25.4874C52.8833 26.0077 52.1791 26.3046 51.4418 26.3149H44.6666C43.9269 26.3123 43.2183 26.0179 42.6952 25.4959C42.1722 24.974 41.8772 24.2668 41.8745 23.5286V2.78636C41.8732 2.42009 41.9445 2.05718 42.0844 1.71854C42.2242 1.37989 42.4298 1.07221 42.6894 0.813218C42.9489 0.554225 43.2572 0.34904 43.5966 0.209483C43.9359 0.0699274 44.2996 -0.00124084 44.6666 7.90633e-05H51.4418ZM49.6704 4.51405H46.398V21.761H49.6704V4.51405Z" fill="white"/>
            <path d="M70.166 26.3149L68.3246 15.3296H66.5833V26.3149H62.0499V6.10352e-05H71.6171C72.3515 0.00796502 73.053 0.305322 73.5685 0.827282C74.0841 1.34924 74.3719 2.05345 74.3692 2.78634V12.6332C74.3691 13.1546 74.2191 13.6651 73.9371 14.1041C73.6551 14.5431 73.2528 14.8921 72.778 15.1099L74.6694 26.3149H70.166ZM69.8658 4.51403H66.5833V10.8655H69.8658V4.51403Z" fill="white"/>
            <path d="M91.222 7.90633e-05C91.9617 0.00271066 92.6704 0.297109 93.1934 0.819068C93.7165 1.34103 94.0115 2.0482 94.0141 2.78636V23.5286C94.0038 24.2644 93.7063 24.9671 93.1849 25.4874C92.6635 26.0077 91.9593 26.3046 91.222 26.3149H84.4469C83.7072 26.3123 82.9985 26.0179 82.4754 25.4959C81.9524 24.974 81.6574 24.2668 81.6547 23.5286V2.78636C81.6534 2.42009 81.7247 2.05718 81.8646 1.71854C82.0044 1.37989 82.2101 1.07221 82.4696 0.813218C82.7291 0.554225 83.0375 0.34904 83.3768 0.209483C83.7162 0.0699274 84.0798 -0.00124084 84.4469 7.90633e-05H91.222ZM89.4507 4.51405H86.1782V21.761H89.4507V4.51405Z" fill="white"/>
            <path d="M111.417 6.10352e-05C112.155 0.0053167 112.861 0.300873 113.382 0.82255C113.903 1.34423 114.197 2.0499 114.199 2.78634V23.5286C114.189 24.2627 113.893 24.9639 113.374 25.484C112.855 26.004 112.153 26.302 111.417 26.3149H101.85V6.10352e-05H111.417ZM109.646 4.51403H106.364V21.761H109.646V4.51403Z" fill="white"/>
            <path d="M122.266 6.10352e-05H126.789V26.3149H122.266V6.10352e-05Z" fill="white"/>
            <path d="M146.894 6.10352e-05V26.3149H142.381L139.108 14.8103V26.3149H134.585V6.10352e-05H139.068L142.381 10.7857V6.10352e-05H146.894Z" fill="white"/>
            <path d="M164.308 10.8656C164.676 10.8629 165.04 10.9326 165.381 11.0707C165.722 11.2088 166.033 11.4126 166.295 11.6704C166.557 11.9282 166.765 12.235 166.909 12.5733C167.052 12.9115 167.127 13.2746 167.13 13.6418V23.5286C167.119 24.2627 166.823 24.964 166.304 25.484C165.785 26.004 165.083 26.302 164.348 26.3149H157.522C156.784 26.3097 156.078 26.0141 155.557 25.4924C155.037 24.9708 154.743 24.2651 154.74 23.5286V18.1159L159.254 17.0673V21.761H162.536V15.3695H157.532C157.167 15.3709 156.804 15.3 156.466 15.1609C156.128 15.0218 155.821 14.8174 155.562 14.5593C155.304 14.3013 155.099 13.9947 154.959 13.6573C154.82 13.3198 154.749 12.9582 154.75 12.5932V2.78635C154.749 2.42176 154.82 2.06048 154.958 1.72315C155.097 1.38581 155.301 1.07902 155.558 0.820285C155.815 0.561554 156.121 0.355954 156.458 0.215221C156.796 0.0744885 157.157 0.00138058 157.522 7.14658e-05H164.308C164.676 -0.00255984 165.042 0.0674947 165.384 0.206217C165.725 0.34494 166.036 0.549601 166.298 0.808462C166.561 1.06732 166.769 1.37529 166.912 1.7147C167.054 2.05412 167.128 2.41829 167.13 2.78635V8.11923L162.576 9.11789V4.51404H159.294V10.8656H164.308Z" fill="white"/>
            <path d="M183.632 13.1225L187.845 26.3149H183.292V26.1651L179.899 15.3695H179.489V26.3549H174.966V6.10352e-05H179.489V10.8655H179.829L183.252 6.10352e-05H187.845L183.632 13.1225Z" fill="white"/>
            <path d="M195.231 6.10352e-05H199.754V26.3149H195.231V6.10352e-05Z" fill="white"/>
        </g>
    </symbol>

    <symbol id="logo-tablet" viewBox="0 0 370 100">
        <g>
            <path d="M120.032 11.3292C127.193 8.92061 127.783 0 120.683 0C118.74 0 116.407 1.35791 114.794 4.13321L105.16 20.5471C104.765 21.2483 104.306 21.9119 103.788 22.5295C101.324 19.1793 102.045 14.154 105.5 11.9536L104.158 10.1794C96.6874 14.8875 98.8807 28.4865 111.349 28.4865C121.955 28.4865 126.892 15.8589 120.032 11.3292ZM111.229 25.7706C109.438 25.8144 107.667 25.3941 106.091 24.5515C106.752 23.7638 107.348 22.9252 107.874 22.0438L113.883 11.7653L114.884 11.8644C123.187 13.599 119.862 25.7706 111.229 25.7706ZM115.065 9.70364L117.949 4.81713C120.553 0.376648 123.878 2.98345 122.095 6.3039C120.723 8.85122 118.7 9.63426 115.065 9.70364Z" fill="white"/>
            <path d="M259.598 18.8324L259.358 19.1099C257.634 21.2678 255.398 22.9703 252.848 24.0658C253.429 23.1539 253.85 22.1727 254.321 21.4194L258.256 14.7388C261.581 9.14857 256.203 7.28516 252.568 10.5065L253.289 9.28734H249.724L244.156 18.8324L243.915 19.1C243.24 19.8683 242.417 20.4949 241.493 20.9427C240.569 21.3904 239.564 21.6503 238.537 21.7068L241.892 15.9778C244.045 12.2807 242.062 8.79175 238.707 8.79175C235.963 8.79175 233.84 9.87213 231.787 13.4007L230.035 16.4238L228.572 18.8324L228.382 19.0504C225.808 22.024 223.315 24.3433 221.732 24.3433C220.941 24.3433 220.501 23.7982 221.322 22.4105L226.459 13.4899C228.002 10.8138 226.529 8.88095 224.547 8.88095C223.004 8.88095 221.352 9.72345 219.539 11.5571L225.228 1.75438H221.662L211.758 18.8324L211.557 19.0604C210.317 20.5164 208.889 21.8059 207.311 22.8962C208.443 19.5361 208.212 14.382 210.396 9.87213L207.722 8.44483C206.249 10.4272 203.035 15.056 199.81 18.7927L199.57 19.0604C197.006 22.0339 194.502 24.3532 192.93 24.3532C192.139 24.3532 191.688 23.8081 192.509 22.4205L196.074 16.2454C197.306 14.1045 196.725 12.8556 195.564 11.4679L193.561 9.0891C193.437 8.94832 193.344 8.78396 193.286 8.60614C193.229 8.42831 193.209 8.24078 193.228 8.05509C193.247 7.8694 193.304 7.68947 193.395 7.52638C193.487 7.36328 193.611 7.22048 193.761 7.10674L191.908 5.12439C189.905 6.91842 189.715 8.9206 190.987 10.5461L191.287 10.903C189.705 13.1133 187.582 16.0967 185.278 18.8324L185.038 19.1C182.464 22.0735 179.179 24.3929 176.676 24.3929C174.482 24.3929 173.181 23.035 174.823 20.1903L175.163 19.5758C177.467 20.5669 181.783 20.0813 184.457 15.502L184.968 14.6199C186.881 11.3688 185.038 8.93051 182.124 8.93051C180.741 8.93549 179.386 9.31734 178.207 10.0342C177.029 10.751 176.073 11.7752 175.444 12.9943L171.959 18.8324L171.748 19.0703C171.075 19.8438 170.251 20.4744 169.325 20.9241C168.399 21.3738 167.39 21.6333 166.36 21.687L169.725 15.9481C170.508 14.7297 170.966 13.335 171.057 11.8941C171.084 11.4708 171.019 11.0466 170.867 10.6501C170.714 10.2537 170.478 9.89411 170.173 9.59556C169.869 9.29701 169.503 9.0664 169.101 8.91921C168.699 8.77202 168.27 8.71166 167.843 8.74219C167.003 8.76252 166.189 9.03565 165.509 9.52522L170.036 1.75438H166.401L156.406 18.8324L156.225 19.0405C153.652 22.0141 151.148 24.3334 149.576 24.3334C148.784 24.3334 148.344 23.7883 149.165 22.4006L152.73 16.2256C153.962 14.0946 153.381 12.8358 152.21 11.4481L150.207 9.06928C150.085 8.92725 149.993 8.76224 149.938 8.58422C149.882 8.4062 149.863 8.21887 149.883 8.03356C149.903 7.84825 149.96 7.66882 150.052 7.50611C150.144 7.3434 150.268 7.20079 150.417 7.08692L148.564 5.10456C146.561 6.8986 146.371 8.90078 147.633 10.5362L147.943 10.9426C146.371 13.143 144.248 16.1265 141.934 18.872L141.694 19.1397C139.13 22.1132 136.626 24.4325 135.054 24.4325C134.263 24.4325 133.812 23.8874 134.634 22.4997L140.392 12.5285H138.389C138.383 12.0473 138.28 11.5722 138.088 11.1302C137.895 10.6883 137.617 10.2883 137.268 9.95315C136.919 9.61799 136.507 9.35426 136.055 9.17707C135.603 8.99989 135.12 8.91273 134.634 8.9206C132.721 8.9206 130.047 10.4074 128.534 12.9844L123.527 21.5284C122.015 24.1451 123.086 26.5537 125.961 26.5537C127.393 26.5537 129.175 25.6319 130.898 24.2442C131.068 25.6021 132.16 26.5537 133.983 26.5537C136.927 26.5537 140.312 23.4315 143.266 20.0416C144.979 18.0593 146.271 16.3148 149.155 12.4789L149.636 13.0538C149.872 13.3231 150.018 13.6584 150.054 14.0135C150.09 14.3685 150.014 14.7258 149.836 15.0362L146.07 21.5086C144.568 24.1253 145.63 26.5338 148.504 26.5338C150.567 26.5338 152.85 24.9975 155.054 22.916C155.054 25.3246 156.866 26.6825 159.16 26.6825C160.36 26.6298 161.532 26.3068 162.587 25.7383C163.642 25.1698 164.553 24.3707 165.249 23.4017C165.509 23.4166 165.77 23.4166 166.03 23.4017C167.698 23.3207 169.323 22.8448 170.767 22.0141C170.577 24.5614 172.449 26.4942 175.594 26.4942C179.6 26.4942 183.606 23.372 186.61 19.9822C188.323 17.9998 189.615 16.2553 192.509 12.4195L192.99 12.9943C193.224 13.265 193.368 13.6001 193.404 13.9544C193.44 14.3088 193.365 14.6655 193.19 14.9767L189.425 21.459C187.912 24.0658 188.974 26.4744 191.858 26.4744C194.742 26.4744 198.198 23.3522 201.142 19.9623C203.145 17.6628 204.948 15.1848 206.209 13.5197C204.807 17.187 205.558 23.7585 202.203 23.7585C201.831 23.7201 201.477 23.5789 201.181 23.3512C200.885 23.1234 200.66 22.8181 200.531 22.47L198.298 23.6297C198.526 24.4719 199.038 25.2122 199.747 25.729C200.457 26.2459 201.323 26.5087 202.203 26.4744C202.538 26.4714 202.873 26.4482 203.205 26.405C203.205 26.405 203.275 26.405 203.315 26.405C205.3 26.0672 207.175 25.2653 208.783 24.0658L207.561 26.1671H211.157L216.495 16.85C221.973 10.0406 224.406 10.903 222.864 13.5296L218.237 21.459C216.735 24.0658 217.797 26.4744 220.671 26.4744C222.744 26.4744 225.037 24.938 227.23 22.8467C227.23 27.3367 233.54 28.2188 237.396 23.3918H238.187C239.508 23.3337 240.805 23.017 242.002 22.4601L235.513 33.7001H239.108L249.764 15.3533C253.77 9.99107 256.243 11.9635 255.312 13.5494L249.934 22.7773C249.353 23.7685 248.021 24.1055 247.37 22.7773L245.367 23.7685C245.596 24.6107 246.107 25.3509 246.817 25.8678C247.527 26.3847 248.393 26.6475 249.273 26.6131H249.473C254.651 26.514 258.046 23.4612 260.95 20.1011C260.828 19.8074 260.644 19.5427 260.411 19.3241C260.178 19.1054 259.901 18.9379 259.598 18.8324ZM178.478 13.8765C180.531 10.3875 184.167 10.9624 182.044 14.6199L181.523 15.502C179.81 18.3864 177.517 18.317 176.185 17.8412L178.478 13.8765ZM132.801 19.437C130.648 22.7971 128.524 24.3929 127.052 24.3929C126.261 24.3929 125.81 23.8577 126.632 22.47L131.639 13.8864C133.552 10.5957 137.358 11.4481 135.645 14.6298L132.801 19.437ZM159.63 24.2541C159.443 24.2696 159.255 24.2457 159.077 24.1839C158.9 24.1221 158.738 24.0238 158.601 23.8955C158.465 23.7673 158.358 23.6119 158.287 23.4396C158.216 23.2674 158.182 23.0822 158.188 22.8962C158.239 22.2436 158.453 21.6137 158.809 21.0625L160.061 18.8324C160.152 19.5683 160.4 20.2765 160.791 20.9091C161.181 21.5418 161.704 22.0842 162.324 22.4997C162.053 22.9873 161.662 23.3997 161.188 23.6992C160.714 23.9988 160.172 24.1759 159.61 24.2145L159.63 24.2541ZM163.346 20.8147C162.855 20.4433 162.461 19.9603 162.198 19.4066C161.934 18.8528 161.81 18.2445 161.834 17.6331C161.834 15.1155 164.307 11.012 166.33 11.012C166.523 11.0145 166.713 11.0574 166.887 11.1379C167.062 11.2184 167.217 11.3345 167.343 11.4788C167.469 11.623 167.563 11.7921 167.618 11.9747C167.673 12.1574 167.688 12.3495 167.662 12.5384C167.626 13.2889 167.391 14.0168 166.981 14.6496L163.346 20.8147ZM236.534 19.0504H236.354C235.795 19.0557 235.261 19.2797 234.869 19.6735C234.477 20.0673 234.258 20.5988 234.261 21.1517C234.265 21.5712 234.383 21.9819 234.601 22.3412V22.4105C232.919 25.2552 228.843 24.72 230.966 21.0526L233.68 16.404L235.393 13.5296C237.886 9.31707 241.321 10.9823 239.158 14.6496L236.534 19.0504Z" fill="white"/>
            <path d="M5.71866 66.9583L0 72.6245L5.71665 78.2927L11.4353 72.6265L5.71866 66.9583Z" fill="white"/>
            <path d="M358.235 66.9544L352.512 72.6165L358.233 78.2805L363.956 72.6184L358.235 66.9544Z" fill="white"/>
            <path d="M46.8738 72.8318H48.9569V64.5852H52.2317V62.5136H46.8738V72.8318Z" fill="#636466"/>
            <path d="M61.7859 74.3384V61.7702C61.7775 60.9277 61.5323 60.104 61.0777 59.3916C60.6231 58.6791 59.9772 58.1059 59.2121 57.7361C59.5252 58.3512 59.6898 59.0298 59.6929 59.7185V72.2866C59.6986 72.9531 59.5521 73.6121 59.2642 74.2146C58.9763 74.8171 58.5545 75.3473 58.0304 75.7657C58.5426 76.2327 58.954 76.7975 59.2398 77.426C59.5255 78.0546 59.6796 78.734 59.6929 79.4231V93.4087C59.6748 94.5992 59.1889 95.7359 58.3382 96.5778C57.4875 97.4197 56.339 97.9006 55.1361 97.9185H41.556V99.9901H57.2192C58.4239 99.9697 59.5736 99.487 60.4256 98.6437C61.2776 97.8005 61.7654 96.6627 61.7859 95.4703V81.4848C61.7654 80.7941 61.6051 80.1145 61.3143 79.4862C61.0236 78.858 60.6085 78.2939 60.0934 77.8273C60.6222 77.4089 61.049 76.878 61.342 76.274C61.635 75.67 61.7867 75.0084 61.7859 74.3384Z" fill="#636466"/>
            <path d="M46.8738 90.5342H48.9569V82.2183H52.2317V80.1566H46.8738V90.5342Z" fill="#636466"/>
            <path d="M79.9327 90.5342H82.0158V64.5852H85.2907V62.5136H79.9327V90.5342Z" fill="#636466"/>
            <path d="M92.281 57.7361C92.5903 58.3526 92.7547 59.0303 92.7617 59.7185V93.4186C92.7436 94.6117 92.2567 95.751 91.4041 96.5947C90.5516 97.4385 89.4005 97.9204 88.1949 97.9383H77.1186C76.4224 97.9378 75.7362 97.7748 75.1156 97.4626C75.4869 98.2208 76.0657 98.8606 76.7864 99.3092C77.507 99.7578 78.3403 99.9971 79.1916 100H90.278C91.4827 99.9846 92.6337 99.5049 93.4865 98.6627C94.3394 97.8205 94.8266 96.6823 94.8448 95.4901V61.7901C94.8398 60.9454 94.5973 60.1188 94.1445 59.4028C93.6917 58.6868 93.0465 58.1097 92.281 57.7361Z" fill="#636466"/>
            <path d="M112.992 72.8318H115.075V64.5852H118.36V62.5136H112.992V72.8318Z" fill="#636466"/>
            <path d="M125.25 81.792C126.025 81.4363 126.681 80.8683 127.141 80.1552C127.601 79.4421 127.844 78.6137 127.844 77.7679V61.7702C127.843 60.9233 127.602 60.0935 127.147 59.3764C126.691 58.6592 126.041 58.0838 125.27 57.7163C125.583 58.3313 125.748 59.0099 125.75 59.6987V75.6963C125.756 76.5406 125.517 77.3689 125.063 78.0836C124.609 78.7983 123.958 79.3696 123.187 79.7304L126.271 97.9185H120.583L120.933 99.9802H128.334L125.25 81.792Z" fill="#636466"/>
            <path d="M115.826 80.1566H112.992V97.9185H107.674V99.9901H115.075V82.2183H116.176L115.826 80.1566Z" fill="#636466"/>
            <path d="M145.059 90.5342H147.152V64.5852H150.427V62.5136H145.059V90.5342Z" fill="#636466"/>
            <path d="M157.407 57.7361C157.721 58.3508 157.886 59.0297 157.888 59.7185V93.4186C157.873 94.6108 157.388 95.75 156.537 96.5941C155.686 97.4381 154.536 97.9204 153.331 97.9383H142.215C141.519 97.9394 140.832 97.7763 140.212 97.4626C140.582 98.2193 141.16 98.8581 141.878 99.3066C142.597 99.755 143.428 99.9953 144.278 100H155.384C156.588 99.9822 157.738 99.5016 158.59 98.6599C159.442 97.8183 159.93 96.6815 159.951 95.4901V61.7901C159.949 60.9472 159.71 60.1216 159.261 59.4056C158.812 58.6896 158.17 58.1116 157.407 57.7361Z" fill="#636466"/>
            <path d="M178.118 90.5342H180.211V64.5852H183.486V62.5136H178.118V90.5342Z" fill="#636466"/>
            <path d="M190.466 57.7361C190.78 58.3508 190.945 59.0297 190.947 59.7185V93.4186C190.931 94.6108 190.447 95.75 189.596 96.5941C188.745 97.4381 187.595 97.9204 186.39 97.9383H172.81V100H188.473C189.677 99.9822 190.827 99.5016 191.679 98.6599C192.531 97.8183 193.019 96.6815 193.04 95.4901V61.7901C193.035 60.9441 192.792 60.1163 192.337 59.4C191.882 58.6837 191.234 58.1074 190.466 57.7361Z" fill="#636466"/>
            <path d="M211.557 57.2604V97.9185H206.24V99.9901H213.64V57.2604H211.557Z" fill="#636466"/>
            <path d="M244.486 57.2604V97.9185H238.577L239.168 99.9901H246.579V57.2604H244.486Z" fill="#636466"/>
            <path d="M231.657 79.2447V97.9185H226.349V99.9901H233.75V86.4209L231.657 79.2447Z" fill="#636466"/>
            <path d="M263.965 82.2678H270.084V80.1566H261.882C261.186 80.1532 260.5 79.9903 259.879 79.6808C260.243 80.4505 260.82 81.1022 261.543 81.5602C262.267 82.0181 263.106 82.2635 263.965 82.2678Z" fill="#636466"/>
            <path d="M266.809 84.9638L264.716 85.4495V90.5342H266.809V84.9638Z" fill="#636466"/>
            <path d="M277.064 57.7361C277.378 58.3508 277.543 59.0297 277.545 59.7185V68.3913L272.167 69.6303V72.1677L279.628 70.4629V61.7702C279.624 60.928 279.382 60.1036 278.929 59.3907C278.475 58.6777 277.83 58.1045 277.064 57.7361Z" fill="#636466"/>
            <path d="M277.064 75.3791C277.379 75.9934 277.544 76.6725 277.545 77.3615V93.3987C277.53 94.591 277.045 95.7302 276.194 96.5743C275.343 97.4183 274.193 97.9006 272.988 97.9185H261.882C261.186 97.9165 260.5 97.7536 259.879 97.4427C260.253 98.1988 260.833 98.8367 261.552 99.2849C262.272 99.7331 263.104 99.9739 263.955 99.9802H275.061C276.265 99.9623 277.415 99.4818 278.267 98.6401C279.119 97.7985 279.607 96.6617 279.628 95.4703V79.4132C279.621 78.5717 279.377 77.7488 278.924 77.0364C278.471 76.324 277.827 75.7503 277.064 75.3791Z" fill="#636466"/>
            <path d="M264.716 62.5136V72.8318H266.809V64.5852H270.084V62.5136H264.716Z" fill="#636466"/>
            <path d="M298.456 80.1566H297.775V97.9185H292.467V99.9901H299.868V84.5971L298.456 80.1566Z" fill="#636466"/>
            <path d="M313.618 57.2604H310.864L304.625 76.4992L311.535 97.9185H305.516L306.097 99.7423L306.157 99.9901H313.618L306.708 78.5608L313.618 57.2604Z" fill="#636466"/>
            <path d="M331.024 57.2604V97.9185H325.716V99.9901H333.107V57.2604H331.024Z" fill="#636466"/>
            <path d="M367.91 76.5179L362.19 82.1819L364.279 84.2491L370 78.5851L367.91 76.5179Z" fill="#636466"/>
            <path d="M15.4074 76.5546L9.68555 82.2177L11.7746 84.2852L17.4965 78.6222L15.4074 76.5546Z" fill="#636466"/>
            <path d="M55.7369 68.3913C55.7386 69.0518 55.5912 69.7043 55.3053 70.3011C55.0193 70.898 54.6022 71.4239 54.0844 71.8406C54.598 72.3071 55.011 72.8716 55.2984 73.5002C55.5858 74.1287 55.7418 74.8083 55.7569 75.4981V89.4836C55.7362 90.675 55.2482 91.8118 54.3959 92.6534C53.5436 93.4951 52.394 93.9756 51.1902 93.9935H35.507V51.2638H51.1701C52.3781 51.2741 53.5336 51.7536 54.3877 52.599C55.2419 53.4444 55.7264 54.588 55.7369 55.7835V68.3913ZM48.2658 58.6183H42.9079V68.9067H48.2658V58.6183ZM48.2658 76.2613H42.9079V86.6092H48.2658V76.2613Z" fill="white"/>
            <path d="M84.2291 51.2638C85.437 51.2741 86.5926 51.7536 87.4467 52.599C88.3009 53.4444 88.7854 54.588 88.7959 55.7835V89.4836C88.7752 90.675 88.2871 91.8117 87.4348 92.6534C86.5826 93.4951 85.4329 93.9756 84.2291 93.9935H73.1127C71.9048 93.9883 70.7478 93.5118 69.8928 92.6674C69.0378 91.823 68.5538 90.679 68.5459 89.4836V55.7835C68.5446 55.1896 68.6618 54.6013 68.8908 54.0523C69.1199 53.5034 69.4562 53.0046 69.8805 52.5847C70.3049 52.1647 70.8088 51.8318 71.3635 51.6051C71.9181 51.3785 72.5126 51.2625 73.1127 51.2638H84.2291ZM81.3348 58.5886H75.9669V86.6092H81.3348V58.5886Z" fill="white"/>
            <path d="M114.884 93.9935L111.88 76.2316H109.046V93.9935H101.645V51.2638H117.308C118.51 51.2768 119.657 51.7591 120.501 52.6056C121.345 53.4521 121.817 54.5943 121.815 55.7835V71.7812C121.812 72.6313 121.562 73.4628 121.095 74.1763C120.628 74.8899 119.964 75.4554 119.181 75.8053L122.265 93.9935H114.884ZM114.394 58.5886H109.026V68.9067H114.394V58.5886Z" fill="white"/>
            <path d="M149.365 51.2638C150.573 51.2741 151.729 51.7536 152.583 52.599C153.437 53.4444 153.922 54.588 153.932 55.7835V89.4836C153.912 90.675 153.423 91.8118 152.571 92.6534C151.719 93.4951 150.569 93.9756 149.365 93.9935H138.259C137.053 93.9857 135.898 93.508 135.046 92.6639C134.193 91.8199 133.71 90.6773 133.702 89.4836V55.7835C133.701 55.1905 133.818 54.603 134.046 54.0546C134.275 53.5063 134.61 53.008 135.033 52.5882C135.457 52.1683 135.959 51.8353 136.513 51.608C137.066 51.3807 137.66 51.2638 138.259 51.2638H149.365ZM146.461 58.5886H141.103V86.6092H146.461V58.5886Z" fill="white"/>
            <path d="M182.424 51.2638C183.632 51.2741 184.788 51.7536 185.642 52.599C186.496 53.4444 186.981 54.588 186.991 55.7835V89.4836C186.97 90.675 186.482 91.8118 185.63 92.6534C184.778 93.4951 183.628 93.9756 182.424 93.9935H166.761V51.2638H182.424ZM179.52 58.5886H174.162V86.6092H179.52V58.5886Z" fill="white"/>
            <path d="M200.191 51.2638H207.591V93.9935H200.191V51.2638Z" fill="white"/>
            <path d="M240.52 51.2638V93.9935H233.119L227.691 75.3296V93.9935H220.33V51.2638H227.671L233.099 68.7878V51.2638H240.52Z" fill="white"/>
            <path d="M269.022 68.9067C270.23 68.9146 271.386 69.3936 272.239 70.2398C273.092 71.086 273.574 72.2311 273.579 73.4265V89.4836C273.561 90.6741 273.075 91.8108 272.225 92.6528C271.374 93.4947 270.225 93.9756 269.022 93.9935H257.916C256.714 93.978 255.566 93.4972 254.718 92.6542C253.87 91.8113 253.39 90.6731 253.379 89.4836V80.6919L260.78 78.9771V86.6092H266.148V76.2316H257.946C257.346 76.2329 256.752 76.1168 256.197 75.8902C255.642 75.6635 255.138 75.3306 254.714 74.9107C254.29 74.4907 253.953 73.9919 253.724 73.443C253.495 72.894 253.378 72.3057 253.379 71.7118V55.7835C253.379 54.5848 253.86 53.4352 254.717 52.5876C255.573 51.7399 256.735 51.2638 257.946 51.2638H269.052C270.259 51.2741 271.414 51.754 272.267 52.5996C273.119 53.4453 273.601 54.5889 273.609 55.7835V64.4266L266.148 66.1314V58.5886H260.79V68.9067H269.022Z" fill="white"/>
            <path d="M300.659 72.5741L307.569 93.9935H300.108L300.048 93.7556L294.49 76.2316H293.809V93.9935H286.428V51.2638H293.819V68.9067H294.38L300.058 51.2638H307.579L300.659 72.5741Z" fill="white"/>
            <path d="M319.657 51.2638H327.058V93.9935H319.657V51.2638Z" fill="white"/>
        </g>
    </symbol>

    <symbol id="logo-desktop" viewBox="0 0 370 153">
        <g>
            <path d="M120.042 11.43C127.193 9 127.783 0 120.693 0C118.69 0 116.406 1.37 114.804 4.17L105.159 20.73C104.766 21.4383 104.306 22.1079 103.787 22.73C101.323 19.34 102.044 14.28 105.5 12.06L104.158 10.27C96.6864 15.02 98.8797 28.75 111.349 28.75C121.965 28.74 126.892 16 120.042 11.43ZM111.238 26C109.448 26.0451 107.676 25.621 106.101 24.77C106.768 23.9801 107.364 23.1336 107.883 22.24L113.892 11.87L114.894 11.97C123.186 13.72 119.871 26 111.238 26ZM115.074 9.79L117.949 4.86C120.552 0.38 123.878 3.01 122.095 6.36C120.723 8.93 118.7 9.72 115.074 9.79Z" fill="white"/>
            <path d="M259.603 19L259.363 19.27C257.644 21.4528 255.406 23.1717 252.853 24.27C253.434 23.35 253.854 22.35 254.325 21.6L258.261 14.86C261.586 9.22 256.208 7.33 252.572 10.58L253.293 9.35H249.728L244.16 19L243.919 19.27C243.246 20.0474 242.423 20.681 241.499 21.1329C240.575 21.5849 239.569 21.8458 238.541 21.9L241.896 16.12C244.059 12.39 242.066 8.87 238.711 8.87C235.967 8.87 233.844 9.96 231.791 13.52L230.038 16.52L228.576 19L228.386 19.22C225.812 22.22 223.318 24.56 221.736 24.56C220.944 24.56 220.504 24.01 221.325 22.56L226.463 13.56C228.005 10.86 226.533 8.91 224.54 8.91C222.998 8.91 221.355 9.76 219.532 11.61L225.221 1.72H221.656L211.771 19L211.57 19.23C210.327 20.7003 208.896 22.0014 207.314 23.1C208.446 19.71 208.205 14.51 210.398 9.96L207.724 8.52C206.252 10.52 203.027 15.19 199.812 18.95L199.572 19.22C196.998 22.22 194.504 24.56 192.922 24.56C192.131 24.56 191.69 24.01 192.511 22.56L196.077 16.33C197.309 14.17 196.728 12.91 195.566 11.51L193.563 9.12C193.434 8.9857 193.332 8.82695 193.265 8.65307C193.198 8.47919 193.166 8.29366 193.172 8.10738C193.178 7.9211 193.22 7.73782 193.298 7.56826C193.375 7.39871 193.486 7.24631 193.623 7.12L193.733 7.03L191.88 5.03C189.877 6.84 189.687 8.86 190.959 10.5L191.26 10.91C189.687 13.13 187.564 16.14 185.25 18.91L185.01 19.18C182.436 22.18 179.151 24.52 176.647 24.52C174.454 24.52 173.152 23.15 174.795 20.28L175.135 19.66C177.429 20.66 181.745 20.17 184.419 15.56L184.93 14.67C186.853 11.39 185 8.92 182.086 8.92C180.71 8.92972 179.363 9.31501 178.191 10.0342C177.019 10.7533 176.066 11.779 175.436 13L171.96 19L171.75 19.24C171.079 20.02 170.257 20.6555 169.332 21.1077C168.407 21.5598 167.4 21.8192 166.372 21.87L169.727 16.09C170.516 14.8632 170.978 13.4553 171.069 12C171.093 11.6067 171.04 11.2124 170.912 10.8397C170.783 10.467 170.583 10.1231 170.322 9.82784C170.06 9.53253 169.743 9.29152 169.389 9.11859C169.034 8.94567 168.649 8.8442 168.255 8.82H167.834C166.994 8.84363 166.181 9.11889 165.501 9.61L170.027 1.78H166.392L156.417 19L156.226 19.21C153.653 22.21 151.159 24.55 149.576 24.55C148.785 24.55 148.345 24 149.166 22.55L152.731 16.32C153.963 14.16 153.382 12.9 152.22 11.5L150.217 9.11C150.087 8.97572 149.986 8.81664 149.919 8.64227C149.852 8.4679 149.82 8.28181 149.827 8.09513C149.833 7.90844 149.878 7.72499 149.957 7.55573C150.036 7.38647 150.148 7.23488 150.287 7.11L150.428 7L148.575 5C146.572 6.81 146.382 8.83 147.653 10.47L147.964 10.88C146.392 13.1 144.258 16.11 141.955 18.88L141.715 19.15C139.141 22.15 136.647 24.49 135.064 24.49C134.273 24.49 133.833 23.94 134.654 22.49L140.413 12.43H138.41C138.343 11.4849 137.915 10.6016 137.214 9.96304C136.513 9.32451 135.592 8.97969 134.644 9C132.721 9 130.057 10.51 128.545 13.11L123.537 21.73C122.025 24.37 123.096 26.79 125.971 26.79C127.413 26.79 129.196 25.87 130.908 24.46C131.078 25.83 132.18 26.79 133.993 26.79C136.937 26.79 140.332 23.64 143.277 20.22C144.989 18.22 146.281 16.46 149.166 12.59L149.647 13.17C149.885 13.4406 150.033 13.7784 150.07 14.1366C150.108 14.4948 150.033 14.8559 149.857 15.17L146.091 21.7C144.589 24.34 145.65 26.76 148.525 26.76C150.588 26.76 152.871 25.21 155.075 23.11C155.075 25.54 156.887 26.91 159.191 26.91C160.377 26.8475 161.533 26.5182 162.574 25.9468C163.614 25.3753 164.512 24.5765 165.2 23.61C165.463 23.63 165.728 23.63 165.991 23.61C167.657 23.5309 169.279 23.0506 170.718 22.21C170.528 24.78 172.401 26.73 175.546 26.73C179.552 26.73 183.558 23.58 186.562 20.16C188.275 18.16 189.567 16.4 192.451 12.53L192.932 13.11C193.17 13.3806 193.318 13.7184 193.356 14.0766C193.394 14.4348 193.319 14.7959 193.142 15.11L189.377 21.64C187.864 24.28 188.936 26.7 191.81 26.7C194.685 26.7 198.15 23.55 201.094 20.13C203.097 17.8 204.9 15.31 206.162 13.63C204.76 17.33 205.511 23.96 202.156 23.96C201.782 23.923 201.425 23.7814 201.128 23.5515C200.83 23.3216 200.603 23.0126 200.473 22.66L198.3 23.82C198.529 24.6697 199.04 25.4165 199.75 25.938C200.459 26.4595 201.326 26.7247 202.206 26.69C202.547 26.69 202.877 26.69 203.208 26.62H203.308C205.297 26.2823 207.175 25.4729 208.786 24.26L207.564 26.38H211.16L216.568 16.97C222.056 10.09 224.48 10.97 222.937 13.62L218.31 21.62C216.798 24.25 217.87 26.68 220.744 26.68C222.817 26.68 225.101 25.12 227.304 23.01C227.304 27.55 233.604 28.43 237.469 23.56H238.261C239.584 23.5101 240.882 23.1902 242.076 22.62L235.587 33.86H239.182L249.838 15.35C253.844 9.94 256.318 11.93 255.387 13.54L250.008 22.85C249.911 23.1126 249.736 23.3392 249.506 23.4992C249.276 23.6592 249.002 23.7449 248.721 23.7449C248.441 23.7449 248.167 23.6592 247.937 23.4992C247.707 23.3392 247.532 23.1126 247.435 22.85L245.432 23.85C245.66 24.6997 246.171 25.4466 246.881 25.968C247.591 26.4895 248.457 26.7547 249.337 26.72H249.548C254.726 26.62 258.111 23.54 261.025 20.15C260.882 19.8693 260.682 19.6218 260.437 19.4236C260.192 19.2255 259.908 19.0811 259.603 19ZM178.48 14C180.483 10.48 184.169 11.06 182.046 14.75L181.535 15.64C179.822 18.55 177.529 18.48 176.187 18L178.48 14ZM132.801 19.61C130.638 23 128.515 24.61 127.042 24.61C126.251 24.61 125.81 24.06 126.632 22.61L131.639 13.95C133.562 10.63 137.358 11.49 135.645 14.7L132.801 19.61ZM159.632 24.47C159.287 24.4894 158.949 24.3738 158.689 24.1477C158.429 23.9217 158.268 23.6031 158.24 23.26C158.235 23.2068 158.235 23.1532 158.24 23.1C158.293 22.4422 158.506 21.8073 158.86 21.25L160.062 19C160.155 19.7403 160.405 20.4524 160.796 21.0887C161.186 21.7249 161.707 22.2709 162.326 22.69C162.058 23.1836 161.67 23.6018 161.197 23.9059C160.724 24.21 160.182 24.3903 159.622 24.43L159.632 24.47ZM163.347 21C162.854 20.6248 162.459 20.136 162.195 19.5753C161.932 19.0147 161.808 18.3987 161.835 17.78C161.835 15.25 164.299 11.11 166.322 11.11C166.501 11.11 166.679 11.1455 166.845 11.2145C167.011 11.2834 167.162 11.3845 167.288 11.5119C167.415 11.6392 167.515 11.7903 167.583 11.9565C167.651 12.1226 167.685 12.3006 167.684 12.48C167.689 12.5366 167.689 12.5934 167.684 12.65C167.65 13.4045 167.414 14.1363 167.003 14.77L163.347 21ZM236.538 19.22H236.358C235.801 19.2253 235.268 19.4499 234.876 19.845C234.484 20.2402 234.265 20.7738 234.265 21.33C234.271 21.7528 234.389 22.1666 234.605 22.53V22.6C232.923 25.47 228.846 24.93 230.97 21.23L235.356 13.62C237.86 9.38 241.285 11.05 239.122 14.75L236.538 19.22ZM0 73.26L5.71866 67.54L11.4473 73.26L5.71866 79L0 73.26ZM352.534 73.26L358.262 67.55L363.981 73.27L358.282 79L352.534 73.26Z" fill="white"/>
            <path d="M46.871 73.48H48.9542V65.16H52.2291V63.07H46.871V73.48ZM61.7836 75V62.32C61.7784 61.4705 61.5356 60.6393 61.0826 59.9202C60.6295 59.2011 59.9844 58.6226 59.2197 58.25C59.537 58.869 59.7018 59.5546 59.7004 60.25V72.93C59.7108 73.5981 59.5714 74.26 59.2924 74.8674C59.0134 75.4747 58.6019 76.012 58.088 76.44C58.598 76.9129 59.0079 77.4831 59.2935 78.1169C59.579 78.7507 59.7344 79.4352 59.7505 80.13V94.23C59.7347 95.4518 59.2347 96.6176 58.36 97.4722C57.4853 98.3269 56.3072 98.8007 55.0835 98.79H41.553V100.87H57.2167C58.4231 100.854 59.5757 100.369 60.4288 99.5172C61.2819 98.6654 61.768 97.5145 61.7836 96.31V82.21C61.7642 81.5129 61.6043 80.8269 61.3135 80.193C61.0227 79.559 60.607 78.99 60.091 78.52C60.6237 78.1014 61.0533 77.5664 61.3467 76.9562C61.6401 76.3461 61.7895 75.6768 61.7836 75Z" fill="#636466"/>
            <path d="M46.8708 91.34H48.954V83H52.229V80.87H46.8708V91.34ZM79.9209 91.34H82.004V65.16H85.279V63.07H79.9309L79.9209 91.34Z" fill="#636466"/>
            <path d="M92.2796 58.25C92.597 58.869 92.7618 59.5546 92.7604 60.25V94.25C92.7448 95.4546 92.2586 96.6054 91.4055 97.4572C90.5524 98.309 89.3998 98.7944 88.1934 98.81H77.1167C76.4208 98.8065 75.7353 98.6423 75.1136 98.33C75.4868 99.0935 76.0661 99.7377 76.7864 100.19C77.5066 100.642 78.339 100.885 79.1898 100.89H90.2866C91.493 100.874 92.6456 100.389 93.4987 99.5372C94.3518 98.6854 94.838 97.5346 94.8535 96.33V62.33C94.8504 61.4775 94.6075 60.6429 94.1524 59.9216C93.6973 59.2002 93.0484 58.621 92.2796 58.25ZM112.991 73.48H115.074V65.16H118.359V63.07H112.991V73.48ZM125.26 82.48C126.036 82.1221 126.693 81.5493 127.152 80.8296C127.612 80.1099 127.856 79.2736 127.853 78.42V62.32C127.854 61.4641 127.613 60.6253 127.158 59.9C126.702 59.1748 126.051 58.5925 125.28 58.22C125.592 58.8407 125.757 59.5252 125.76 60.22V76.37C125.767 77.2234 125.528 78.0609 125.072 78.7825C124.616 79.5041 123.961 80.0795 123.186 80.44L126.271 98.79H120.582L120.933 100.87H128.334L125.26 82.48ZM115.825 80.83H112.991V98.79H107.673V100.88H115.074V83H116.176L115.825 80.83ZM145.06 91.3H147.153V65.16H150.428V63.07H145.06V91.3Z" fill="#636466"/>
            <path d="M157.418 58.25C157.737 58.8686 157.902 59.5545 157.899 60.25V94.25C157.883 95.4546 157.397 96.6054 156.544 97.4572C155.691 98.309 154.538 98.7944 153.332 98.81H142.215C141.519 98.8065 140.834 98.6423 140.212 98.33C140.585 99.0935 141.165 99.7377 141.885 100.19C142.605 100.642 143.438 100.885 144.288 100.89H155.395C156.602 100.874 157.754 100.389 158.607 99.5372C159.46 98.6854 159.946 97.5345 159.962 96.33V62.33C159.962 61.4806 159.723 60.6483 159.274 59.9273C158.824 59.2062 158.181 58.6252 157.418 58.25ZM178.12 91.34H180.213V65.16H183.488V63.07H178.12V91.34Z" fill="#636466"/>
            <path d="M190.478 58.25C190.796 58.869 190.96 59.5546 190.959 60.25V94.25C190.943 95.4545 190.457 96.6054 189.604 97.4572C188.751 98.309 187.598 98.7944 186.392 98.81H172.812V100.89H188.475C189.682 100.874 190.834 100.389 191.687 99.5372C192.54 98.6854 193.027 97.5345 193.042 96.33V62.33C193.039 61.4787 192.797 60.6454 192.344 59.9244C191.891 59.2033 191.244 58.6233 190.478 58.25ZM211.56 57.77V98.77H206.242V100.86H213.643V57.77H211.56ZM244.49 57.77V98.77H238.581L239.172 100.86H246.583V57.77H244.49ZM231.661 80V98.79H226.343V100.88H233.744V87.19L231.661 80ZM263.98 83H270.099V80.87H261.896C261.201 80.8665 260.515 80.7022 259.893 80.39C260.257 81.1665 260.834 81.824 261.558 82.286C262.281 82.748 263.121 82.9956 263.98 83ZM266.814 85.73L264.721 86.21V91.34H266.814V85.73ZM277.079 58.25C277.397 58.869 277.561 59.5546 277.56 60.25V69L272.182 70.24V72.8L279.643 71.07V62.32C279.638 61.4704 279.395 60.6393 278.942 59.9201C278.489 59.201 277.844 58.6226 277.079 58.25Z" fill="#636466"/>
            <path d="M277.079 76.05C277.397 76.669 277.561 77.3546 277.56 78.05V94.25C277.545 95.4545 277.058 96.6054 276.205 97.4572C275.352 98.309 274.2 98.7944 272.993 98.81H261.886C261.19 98.8065 260.505 98.6422 259.883 98.33C260.256 99.0935 260.836 99.7377 261.556 100.19C262.276 100.642 263.109 100.885 263.959 100.89H275.056C276.263 100.874 277.415 100.389 278.268 99.5372C279.121 98.6854 279.608 97.5345 279.623 96.33V80.12C279.621 79.2723 279.382 78.4421 278.932 77.723C278.483 77.0039 277.841 76.4244 277.079 76.05ZM264.721 63.05V73.48H266.814V65.16H270.089V63.07L264.721 63.05ZM298.452 80.87H297.771V98.79H292.443V100.88H299.844V85.35L298.452 80.87ZM313.615 57.77H310.87L304.631 77.18L311.542 98.79H305.532L306.113 100.63L306.173 100.88H313.635L306.724 79.26L313.635 57.77H313.615ZM331.021 57.77V98.77H325.713V100.86H333.104V57.77H331.021Z" fill="#636466"/>
            <path d="M168.155 123.85H169.567C175.005 124.13 179.271 125.58 181.976 128.57C184.72 125.57 188.986 124.11 194.454 123.85H195.806C207.935 124.67 213.463 133.35 223.148 137.04C224.653 137.723 226.292 138.065 227.945 138.04C230.429 137.77 232.011 135.26 231.691 132.46C231.35 129.46 228.406 126.85 225.121 128.29C224.69 128.492 224.294 128.762 223.949 129.09C223.699 129.32 223.418 129.92 222.777 129.7C222.176 129.2 222.777 128.47 223.088 128.05C223.681 126.997 224.578 126.147 225.663 125.612C226.748 125.077 227.969 124.881 229.167 125.05C234.806 125.45 239.853 130.39 238.992 137.87C237.069 149 226.874 152 214.785 153H210.849C200.3 152.57 190.181 148.707 182.036 142C173.83 148.69 163.676 152.549 153.092 153H149.226C137.048 151.93 126.752 149 124.959 137.54C124.278 129.38 129.146 125.37 134.794 124.96C136.002 124.789 137.234 124.983 138.33 125.518C139.426 126.052 140.337 126.903 140.943 127.96C141.224 128.42 141.745 129.13 141.254 129.68C140.643 129.79 140.343 129.31 140.082 129.07C139.716 128.689 139.278 128.384 138.793 128.173C138.308 127.962 137.787 127.849 137.258 127.84C133.392 127.7 131.169 131.99 132.711 135.45C133.013 136.121 133.482 136.705 134.072 137.146C134.663 137.587 135.356 137.87 136.086 137.97C137.738 137.981 139.374 137.64 140.883 136.97C142.23 136.454 143.527 135.818 144.759 135.07C152.12 130.81 157.879 124.76 168.155 123.85Z" fill="white"/>
            <path d="M362.188 82.91L367.907 77.19L370 79.28L364.271 85L362.188 82.91ZM9.65454 82.91L15.3732 77.2L17.4664 79.28L11.7778 85L9.65454 82.91Z" fill="#636466"/>
            <path d="M55.7343 69C55.7382 69.6667 55.5917 70.3258 55.3056 70.9282C55.0195 71.5307 54.6012 72.0611 54.0818 72.48C54.5918 72.9529 55.0017 73.5231 55.2872 74.1569C55.5728 74.7907 55.7282 75.4752 55.7443 76.17V90.27C55.7287 91.4745 55.2426 92.6254 54.3895 93.4772C53.5364 94.329 52.3838 94.8145 51.1774 94.83H35.5037V51.72H51.1674C52.377 51.7253 53.5355 52.2074 54.3908 53.0614C55.2462 53.9154 55.729 55.0722 55.7343 56.28V69ZM48.273 59.11H42.9049V69.52H48.273V59.11ZM48.273 76.91H42.9049V87.38H48.273V76.91ZM84.2274 51.72C85.437 51.7253 86.5956 52.2074 87.4509 53.0614C88.3062 53.9154 88.7891 55.0722 88.7943 56.28V90.28C88.7788 91.4846 88.2926 92.6354 87.4395 93.4872C86.5864 94.339 85.4338 94.8244 84.2274 94.84H73.1106C71.9026 94.8296 70.7471 94.3458 69.8929 93.4929C69.0387 92.6399 68.5541 91.4862 68.5437 90.28V56.28C68.5437 55.0706 69.0248 53.9108 69.8813 53.0556C70.7378 52.2004 71.8994 51.72 73.1106 51.72H84.2274ZM81.323 59.11H75.9649V87.38H81.333L81.323 59.11ZM114.884 94.83L111.879 76.91H109.045V94.83H101.644V51.72H117.307C117.903 51.7239 118.492 51.845 119.041 52.0763C119.59 52.3076 120.088 52.6446 120.507 53.068C120.925 53.4914 121.256 53.993 121.48 54.5441C121.705 55.0953 121.818 55.6851 121.814 56.28V72.42C121.813 73.278 121.564 74.1174 121.096 74.8375C120.629 75.5577 119.964 76.1279 119.18 76.48L122.265 94.83H114.884ZM114.393 59.11H109.025V69.52H114.393V59.11ZM149.366 51.72C150.576 51.7253 151.734 52.2074 152.589 53.0614C153.445 53.9154 153.928 55.0722 153.933 56.28V90.28C153.917 91.4846 153.431 92.6354 152.578 93.4872C151.725 94.339 150.572 94.8244 149.366 94.84H138.269C137.061 94.8296 135.906 94.3458 135.051 93.4929C134.197 92.6399 133.713 91.4862 133.702 90.28V56.28C133.702 55.0809 134.175 53.9301 135.019 53.0766C135.862 52.2232 137.008 51.7358 138.209 51.72H149.366ZM146.462 59.11H141.093V87.38H146.462V59.11ZM182.426 51.72C183.636 51.7253 184.794 52.2074 185.65 53.0614C186.505 53.9154 186.988 55.0722 186.993 56.28V90.28C186.977 91.4846 186.491 92.6354 185.638 93.4872C184.785 94.339 183.632 94.8244 182.426 94.84H166.762V51.72H182.426ZM179.532 59.11H174.164V87.38H179.532V59.11ZM200.193 51.72H207.594V94.83H200.193V51.72ZM240.534 51.72V94.83H233.133L227.705 76V94.83H220.333V51.72H227.675L233.103 69.39V51.72H240.534ZM269.027 69.52C270.237 69.5253 271.395 70.0074 272.251 70.8614C273.106 71.7154 273.589 72.8722 273.594 74.08V90.28C273.578 91.4846 273.092 92.6354 272.239 93.4872C271.386 94.339 270.234 94.8244 269.027 94.84H257.93C256.726 94.8243 255.575 94.3383 254.725 93.4859C253.876 92.6336 253.394 91.4827 253.383 90.28V81.41L260.785 79.69V87.39H266.153V76.91H257.95C257.352 76.9113 256.759 76.7949 256.206 76.5675C255.652 76.34 255.149 76.006 254.725 75.5844C254.301 75.1628 253.964 74.662 253.734 74.1104C253.504 73.5589 253.385 72.9675 253.383 72.37V56.28C253.383 55.0741 253.862 53.9172 254.714 53.0626C255.566 52.2081 256.723 51.7253 257.93 51.72H269.047C270.257 51.7253 271.415 52.2074 272.271 53.0614C273.126 53.9154 273.609 55.0722 273.614 56.28V65L266.153 66.73V59.11H260.785V69.52H269.027ZM300.675 73.22L307.585 94.84H300.124L300.064 94.59L294.516 76.92H293.835V94.83H286.434V51.72H293.835V69.52H294.446L300.124 51.72H307.646L300.675 73.22ZM319.704 51.72H327.105V94.83H319.704V51.72Z" fill="white"/>
        </g>
    </symbol>
</svg>